HIERARCHY
ROOT Hips
{
	OFFSET 0.000000 0.000000 0.000000
	CHANNELS 6 Xposition Yposition Zposition Zrotation Yrotation Xrotation 
	JOINT LHipJoint
	{
		OFFSET 0.000000 0.000000 0.000000
		CHANNELS 3 Zrotation Yrotation Xrotation
		JOINT LeftUpLeg
		{
			OFFSET 1.363060 -1.794630 0.839290
			CHANNELS 3 Zrotation Yrotation Xrotation
			JOINT LeftLeg
			{
				OFFSET 2.448110 -6.726130 0.000000
				CHANNELS 3 Zrotation Yrotation Xrotation
				JOINT LeftFoot
				{
					OFFSET 2.562200 -7.039590 0.000000
					CHANNELS 3 Zrotation Yrotation Xrotation
					JOINT LeftToeBase
					{
						OFFSET 0.157640 -0.433110 2.322550
						CHANNELS 3 Zrotation Yrotation Xrotation
						End Site
						{
							OFFSET 0.000000 0.000000 0.000000
						}
					}
				}
			}
		}
	}
	JOINT RHipJoint
	{
		OFFSET 0.000000 0.000000 0.000000
		CHANNELS 3 Zrotation Yrotation Xrotation
		JOINT RightUpLeg
		{
			OFFSET -1.305520 -1.794630 0.839290
			CHANNELS 3 Zrotation Yrotation Xrotation
			JOINT RightLeg
			{
				OFFSET -2.542530 -6.985550 0.000000
				CHANNELS 3 Zrotation Yrotation Xrotation
				JOINT RightFoot
				{
					OFFSET -2.568260 -7.056230 0.000000
					CHANNELS 3 Zrotation Yrotation Xrotation
					JOINT RightToeBase
					{
						OFFSET -0.164730 -0.452590 2.363150
						CHANNELS 3 Zrotation Yrotation Xrotation
						End Site
						{
							OFFSET 0.000000 0.000000 0.000000
						}
					}
				}
			}
		}
	}
}
MOTION
Frames: 19
Frame Time: 0.008333
0.748606 17.085737 0.509876 175.045155 -69.629803 -160.424103 -10.851812 2.753737 1.004456 -10.800165 22.417440 -19.195623 -2.195121 -1.019088 12.595400 3.389616 21.732100 -6.872855 0.600800 0.000001 -45.376800 9.549596 -2.770550 6.626183 0.733819 5.669983 -25.697605 1.771488 -0.311844 19.854177 -0.724764 -1.288933 -7.806677 -0.173199 0.000000 -66.384300
0.730024 17.088876 0.484556 175.714272 -68.135691 -160.830589 -10.899136 2.788717 0.931246 -10.995419 23.242527 -19.424271 -2.220498 -1.028725 12.516315 3.452814 22.235357 -6.701242 0.696500 0.000001 -45.373000 9.455370 -2.845295 6.997690 0.557415 6.820886 -26.169941 1.773820 -0.284227 19.601328 -0.644017 -0.926433 -7.505519 -0.179300 0.000000 -66.551700
0.711826 17.094502 0.459632 176.339372 -66.650328 -161.166903 -10.951522 2.826151 0.859765 -11.198368 24.101573 -19.687793 -2.253775 -1.039689 12.392863 3.501291 22.675498 -6.464765 0.819700 -0.000000 -45.429200 9.351106 -2.928733 7.383997 0.375418 7.990410 -26.623368 1.778932 -0.245639 19.219644 -0.563481 -0.590629 -7.121903 -0.188300 -0.000000 -66.722200
0.694413 17.102608 0.434808 176.906283 -65.195605 -161.420113 -11.007694 2.867211 0.793449 -11.417218 24.979712 -19.993134 -2.295819 -1.051636 12.225912 3.534184 23.045490 -6.162454 0.971100 0.000000 -45.545900 9.238769 -3.019299 7.780843 0.182536 9.156314 -27.061313 1.786740 -0.196372 18.716075 -0.482752 -0.279338 -6.657630 -0.199000 -0.000000 -66.895400
0.677767 17.113016 0.409869 177.410578 -63.791403 -161.583681 -11.066852 2.913690 0.736341 -11.659477 25.861836 -20.344161 -2.347418 -1.064468 12.013595 3.551027 23.339536 -5.795526 1.150100 0.000000 -45.720000 9.120367 -3.115478 8.183752 -0.025320 10.295263 -27.487187 1.797537 -0.136486 18.098495 -0.400980 0.012438 -6.116026 -0.210200 -0.000000 -67.072400
0.662480 17.125625 0.384725 177.843273 -62.455246 -161.662416 -11.127766 2.967089 0.687745 -11.926053 26.740805 -20.725260 -2.408902 -1.077670 11.748986 3.550506 23.550187 -5.364084 1.354901 0.000000 -45.945500 9.000011 -3.214184 8.581462 -0.248688 11.374210 -27.888409 1.812231 -0.067284 17.379751 -0.315801 0.299193 -5.504763 -0.219600 0.000000 -67.246300
0.647923 17.140085 0.359348 178.220279 -61.198478 -161.653389 -11.191271 3.029419 0.660519 -12.228881 27.587973 -21.166725 -2.480367 -1.091881 11.437129 3.535854 23.684719 -4.877212 1.582100 0.000000 -46.230300 8.875965 -3.316103 8.979857 -0.485766 12.386228 -28.291738 1.831487 0.013314 16.560831 -0.227723 0.576277 -4.818900 -0.227300 0.000000 -67.442100
0.635164 17.156193 0.334009 178.532897 -60.035847 -161.579774 -11.256041 3.100851 0.647093 -12.553046 28.407204 -21.622255 -2.560691 -1.106323 11.067937 3.504773 23.733867 -4.336820 1.826600 -0.000000 -46.555500 8.754724 -3.416829 9.358890 -0.725736 13.289035 -28.658774 1.857637 0.102160 15.661436 -0.133241 0.867414 -4.075245 -0.229299 0.000000 -67.636200
0.624204 17.173610 0.309296 178.799593 -58.978374 -161.464396 -11.323136 3.180923 0.650587 -12.889233 29.185678 -22.085836 -2.648116 -1.120968 10.644864 3.458852 23.700694 -3.752284 2.081800 0.000000 -46.922700 8.636840 -3.515187 9.713247 -0.952861 14.065882 -28.982247 1.893135 0.199117 14.688921 -0.031874 1.176625 -3.278349 -0.223601 0.000000 -67.833500
0.615661 17.192095 0.286026 179.033720 -58.038930 -161.342161 -11.392818 3.267299 0.666035 -13.212811 29.923067 -22.525336 -2.739888 -1.135113 10.170952 3.398184 23.583960 -3.132652 2.339701 0.000000 -47.323300 8.525294 -3.608058 10.029523 -1.143497 14.694812 -29.230564 1.940775 0.302245 13.656335 0.076858 1.511144 -2.440634 -0.207400 -0.000000 -68.018600
0.609113 17.211091 0.264428 179.251952 -57.227047 -161.216520 -11.465207 3.358085 0.704176 -13.519629 30.589487 -22.963771 -2.833397 -1.149684 9.665375 3.328101 23.399516 -2.499001 2.591400 0.000000 -47.752600 8.418233 -3.696774 10.313034 -1.278782 15.172793 -29.420105 2.002763 0.412967 12.564256 0.191263 1.861470 -1.560986 -0.181000 0.000000 -68.220400
0.605805 17.230546 0.245917 179.472634 -56.559177 -161.144217 -11.539062 3.447773 0.747635 -13.762522 31.201952 -23.337923 -2.924404 -1.162475 9.133385 3.247039 23.141444 -1.858886 2.827900 -0.000000 -48.200000 8.321783 -3.774559 10.539961 -1.325587 15.478929 -29.487780 2.081365 0.527200 11.433263 0.310469 2.232353 -0.661757 -0.141600 0.000001 -68.395901
0.605842 17.250137 0.231368 179.718612 -56.048072 -161.148888 -11.612254 3.531850 0.794405 -13.920205 31.746787 -23.643431 -3.009296 -1.172597 8.594343 3.158909 22.821778 -1.230895 3.041100 -0.000000 -48.655400 8.237878 -3.838016 10.704841 -1.262060 15.610924 -29.424151 2.177466 0.644387 10.271830 0.431594 2.612271 0.249351 -0.090200 0.000001 -68.547099
0.609524 17.269635 0.221500 -179.991421 -55.703451 -161.249793 -11.681526 3.605722 0.838191 -13.970677 32.213539 -23.870942 -3.084811 -1.178462 8.065844 3.067388 22.452687 -0.632488 3.224000 0.000001 -49.105400 8.169993 -3.881530 10.798756 -1.070776 15.568806 -29.217497 2.290589 0.763595 9.092306 0.551378 2.988625 1.161203 -0.028800 0.000000 -68.667900
0.617179 17.288874 0.216969 -179.643275 -55.529751 -161.458850 -11.743250 3.665247 0.871008 -13.899672 32.591517 -24.014032 -3.148252 -1.178159 7.561774 2.976499 22.049251 -0.078872 3.373000 0.000000 -49.535300 8.122112 -3.898105 10.811421 -0.744176 15.354191 -28.862747 2.418844 0.883809 7.909617 0.666673 3.349247 2.062654 0.039900 -0.000000 -68.751600
0.628587 17.307668 0.218228 -179.221224 -55.525565 -161.778762 -11.796049 3.707143 0.886863 -13.703126 32.870273 -24.078630 -3.198017 -1.169884 7.095101 2.890043 21.625028 0.415517 3.485400 -0.000001 -49.929799 8.095239 -3.882191 10.736174 -0.284630 14.975547 -28.367269 2.559653 1.004775 6.737047 0.774278 3.679016 2.945227 0.111300 0.000000 -68.794400
0.643720 17.325875 0.225332 -178.733917 -55.684357 -162.194001 -11.839816 3.730286 0.883910 -13.393557 33.035629 -24.072865 -3.232881 -1.153029 6.668054 2.811961 21.199180 0.843228 3.564200 0.000000 -50.272700 8.088955 -3.830499 10.569856 0.290197 14.439032 -27.749718 2.709137 1.125744 5.591334 0.872343 3.969816 3.799976 0.181900 0.000000 -68.798700
0.661905 17.343308 0.237967 -178.197243 -55.998021 -162.675974 -11.876769 3.736316 0.868146 -12.999769 33.074306 -24.018518 -3.252855 -1.128543 6.279604 2.745296 20.787715 1.198433 3.613100 0.000001 -50.544800 8.099061 -3.745162 10.319655 0.950291 13.756354 -27.044520 2.863044 1.246189 4.489843 0.959633 4.214636 4.617865 0.247500 0.000000 -68.767200
0.682428 17.359841 0.255700 -177.634523 -56.457173 -163.199696 -11.910689 3.728844 0.847973 -12.554278 32.986460 -23.935081 -3.258862 -1.098098 5.921316 2.690805 20.398997 1.483720 3.637400 0.000000 -50.738500 8.119164 -3.631884 9.998394 1.662519 12.942391 -26.283546 3.017562 1.365232 3.446109 1.036131 4.411501 5.394001 0.305300 -0.000000 -68.713001
